<svg xmlns="http://www.w3.org/2000/svg" xmlns:xlink="http://www.w3.org/1999/xlink" width="500" zoomAndPan="magnify" viewBox="0 0 375 374.999991" height="500" preserveAspectRatio="xMidYMid meet" version="1.0"><defs><clipPath id="f5f649e93a"><path d="M 105.542969 112 L 269.792969 112 L 269.792969 263 L 105.542969 263 Z M 105.542969 112 " clip-rule="nonzero"/></clipPath></defs><g clip-path="url(#f5f649e93a)"><path fill="#15489d" d="M 106.550781 257.199219 C 118.859375 261.378906 132.039062 263.0625 145.019531 262.050781 C 147.992188 261.828125 151.105469 261.660156 153.851562 260.453125 C 156.402344 259.386719 158.171875 257.285156 159.011719 254.707031 C 160.945312 248.789062 157.777344 243.097656 156.542969 237.40625 C 154.160156 226.386719 159.488281 215.058594 166.722656 206.929688 C 172.496094 200.394531 179.5625 195.347656 186.714844 190.386719 C 188.589844 194.03125 189.574219 198.152344 189.882812 202.246094 C 190.191406 206.675781 189.742188 211.164062 188.5625 215.425781 C 187.359375 219.742188 185.339844 223.640625 182.957031 227.453125 C 180.628906 231.179688 178.105469 234.910156 176.621094 239.117188 C 175.300781 242.84375 174.796875 247.105469 176.003906 250.949219 C 177.207031 254.84375 180.207031 257.902344 184.132812 259.21875 C 188.085938 260.539062 192.515625 259.695312 195.796875 257.144531 C 196.300781 256.753906 196.75 256.332031 197.171875 255.882812 C 199.132812 257.875 201.488281 259.445312 204.070312 260.539062 C 208.5 262.472656 213.40625 263.0625 218.226562 262.753906 C 222.796875 262.445312 227.675781 261.601562 231.546875 258.996094 C 234.996094 256.667969 237.488281 253.191406 238.890625 249.320312 C 240.488281 244.78125 240.460938 239.761719 239.367188 235.136719 C 238.386719 230.875 236.257812 226.808594 232.050781 224.984375 C 227.789062 223.164062 223.132812 223.75 218.957031 225.519531 C 217.890625 225.964844 216.882812 226.5 215.902344 227.058594 C 214.582031 227.789062 215.761719 229.808594 217.078125 229.078125 C 220.554688 227.089844 224.675781 225.574219 228.742188 226.386719 C 230.59375 226.75 232.359375 227.535156 233.703125 228.855469 C 235.078125 230.171875 235.949219 231.910156 236.535156 233.675781 C 239.058594 241.304688 237.996094 250.527344 231.628906 256.023438 C 228.488281 258.714844 224.339844 259.78125 220.332031 260.230469 C 215.84375 260.761719 211.21875 260.59375 206.929688 259.164062 C 203.285156 257.957031 199.890625 255.828125 197.535156 252.796875 C 195.292969 249.910156 194.003906 246.292969 193.582031 242.707031 C 192.546875 234.210938 195.742188 226.050781 199.300781 218.480469 C 199.582031 217.890625 199.863281 217.273438 200.171875 216.65625 C 200.199219 216.601562 200.253906 216.546875 200.285156 216.460938 C 202.105469 212.480469 204.683594 208.890625 207.882812 205.890625 C 211.105469 202.863281 214.863281 200.675781 218.957031 199.023438 C 221.117188 198.152344 223.332031 197.285156 225.210938 195.882812 C 227.117188 194.421875 228.460938 192.546875 229.304688 190.300781 C 231.210938 185.367188 230.199219 180.039062 231.210938 174.9375 C 231.714844 172.414062 232.695312 170.03125 233.761719 167.703125 C 234.9375 165.207031 236.144531 162.710938 237.320312 160.21875 C 237.882812 159.011719 238.441406 157.75 239.058594 156.542969 C 239.398438 155.925781 239.875 154.945312 240.660156 154.972656 C 240.628906 154.972656 240.742188 155.003906 240.828125 155.03125 C 240.964844 155.085938 241.050781 155.171875 241.164062 155.3125 C 241.386719 155.5625 241.554688 155.957031 241.640625 156.292969 C 241.921875 157.21875 241.808594 158.226562 241.921875 159.179688 C 242.03125 160.359375 242.3125 161.535156 243.183594 162.402344 C 243.882812 163.132812 244.863281 163.46875 245.875 163.582031 C 247.667969 163.75 249.628906 162.9375 251.339844 163.359375 C 252.96875 163.777344 253.472656 165.742188 254.230469 167.113281 C 254.734375 168.011719 255.351562 168.824219 256.21875 169.414062 C 257.089844 170.03125 258.152344 170.3125 259.191406 170.589844 C 260.089844 170.84375 261.125 171.039062 261.828125 171.710938 C 262.527344 172.386719 262.890625 173.339844 262.921875 174.292969 C 262.976562 176.421875 261.6875 178.5 260.3125 180.039062 C 257.648438 182.984375 253.753906 184.777344 249.742188 184.863281 C 248.761719 184.863281 247.808594 184.777344 246.855469 184.582031 C 246.238281 184.46875 245.59375 184.777344 245.425781 185.394531 C 245.257812 185.984375 245.621094 186.714844 246.238281 186.824219 C 248.199219 187.246094 250.191406 187.273438 252.152344 186.964844 C 252.152344 187.105469 252.210938 187.246094 252.265625 187.386719 C 254.707031 192.742188 257.257812 198.292969 257.761719 204.238281 C 258.292969 210.210938 256.808594 216.179688 254.425781 221.648438 C 253.21875 224.453125 251.789062 227.171875 250.273438 229.808594 C 248.816406 232.359375 247.246094 234.855469 245.957031 237.488281 C 244.75 240.011719 243.828125 242.734375 243.769531 245.566406 C 243.714844 248.171875 244.5 250.78125 245.957031 252.9375 C 247.613281 255.433594 250.050781 257.3125 252.9375 258.210938 C 255.855469 259.105469 259.105469 259.023438 261.9375 257.84375 C 262.527344 257.59375 262.949219 257.0625 262.753906 256.414062 C 262.613281 255.855469 261.910156 255.351562 261.320312 255.601562 C 256.695312 257.507812 251.117188 256.191406 248.199219 252.070312 C 246.796875 250.105469 246.070312 247.835938 246.125 245.453125 C 246.183594 242.816406 247.191406 240.265625 248.367188 237.910156 C 249.6875 235.359375 251.230469 232.917969 252.628906 230.425781 C 254.089844 227.816406 255.460938 225.152344 256.640625 222.40625 C 258.96875 216.964844 260.539062 211.050781 260.199219 205.078125 C 259.835938 198.488281 257.117188 192.375 254.425781 186.433594 C 256.050781 185.929688 257.621094 185.199219 259.023438 184.21875 C 260.875 182.984375 262.445312 181.386719 263.621094 179.507812 C 264.996094 177.320312 265.808594 174.574219 264.828125 172.078125 C 264.351562 170.929688 263.59375 169.945312 262.5 169.328125 C 261.519531 168.742188 260.398438 168.488281 259.304688 168.207031 C 258.378906 167.929688 257.480469 167.621094 256.863281 166.863281 C 256.304688 166.1875 255.96875 165.292969 255.574219 164.507812 C 255.125 163.636719 254.621094 162.742188 253.835938 162.097656 C 252.96875 161.339844 251.902344 161.003906 250.78125 160.945312 C 249.769531 160.890625 248.789062 161.058594 247.808594 161.199219 C 247.359375 161.226562 246.910156 161.28125 246.433594 161.28125 C 246.070312 161.28125 245.675781 161.253906 245.398438 161.140625 C 244.582031 160.804688 244.332031 159.964844 244.246094 159.097656 C 244.136719 158.003906 244.246094 156.910156 243.964844 155.816406 C 243.6875 154.777344 243.125 153.742188 242.199219 153.125 C 241.191406 152.480469 239.902344 152.480469 238.917969 153.125 C 237.9375 153.710938 237.351562 154.722656 236.875 155.730469 C 236.226562 157.019531 235.613281 158.367188 234.996094 159.683594 C 233.761719 162.234375 232.5 164.816406 231.351562 167.394531 C 230.171875 169.972656 229.164062 172.636719 228.742188 175.441406 C 228.320312 178.300781 228.40625 181.191406 228.179688 184.050781 C 228.011719 186.375 227.621094 188.761719 226.527344 190.863281 C 225.40625 192.964844 223.609375 194.339844 221.507812 195.378906 C 219.378906 196.441406 217.105469 197.171875 214.976562 198.207031 C 212.902344 199.21875 210.910156 200.453125 209.058594 201.855469 C 205.359375 204.6875 202.160156 208.21875 199.808594 212.253906 C 199.46875 212.871094 199.132812 213.488281 198.824219 214.105469 C 198.769531 214.164062 198.714844 214.246094 198.683594 214.300781 C 194.761719 222.574219 190.609375 231.320312 191.058594 240.6875 C 191.253906 244.808594 192.292969 248.957031 194.507812 252.492188 C 194.84375 253.050781 195.238281 253.613281 195.628906 254.117188 C 193.273438 256.667969 189.714844 258.042969 186.238281 257.367188 C 182.507812 256.640625 179.453125 254.003906 178.300781 250.414062 C 177.125 246.714844 177.742188 242.675781 179.113281 239.117188 C 180.65625 235.050781 183.265625 231.433594 185.535156 227.734375 C 187.917969 223.890625 189.851562 219.824219 191.003906 215.453125 C 192.125 211.105469 192.574219 206.535156 192.207031 202.050781 C 191.84375 197.621094 190.808594 193.21875 188.730469 189.238281 L 188.648438 189.039062 C 190.808594 187.527344 192.992188 186.011719 195.097656 184.441406 C 204.097656 177.910156 212.902344 170.28125 217.808594 160.132812 C 218.257812 159.152344 218.703125 158.171875 219.097656 157.160156 C 219.292969 157.21875 219.519531 157.246094 219.714844 157.300781 C 222.964844 157.890625 226.582031 158.3125 229.414062 156.207031 C 231.855469 154.386719 233.144531 151.441406 233.285156 148.46875 C 233.480469 144.851562 232.105469 141.402344 230.648438 138.152344 C 229.21875 134.953125 227.789062 131.84375 227.171875 128.367188 C 226.863281 126.65625 226.78125 124.945312 226.808594 123.234375 C 226.835938 121.722656 224.480469 121.722656 224.453125 123.234375 C 224.394531 126.683594 224.929688 130.160156 226.078125 133.414062 C 227.199219 136.582031 228.910156 139.496094 229.976562 142.695312 C 230.929688 145.496094 231.488281 148.722656 230.199219 151.554688 C 229.695312 152.648438 228.964844 153.683594 227.957031 154.386719 C 226.75 155.226562 225.347656 155.480469 223.917969 155.480469 C 222.40625 155.449219 220.917969 155.171875 219.433594 154.863281 C 218.058594 154.582031 216.714844 154.246094 215.394531 153.769531 C 212.871094 152.84375 210.488281 151.355469 209.058594 149.058594 C 205.945312 144.066406 207.546875 137.84375 210.488281 133.1875 C 212.144531 130.523438 214.246094 128.167969 216.433594 125.898438 C 217.609375 124.691406 218.816406 123.515625 220.050781 122.339844 C 221.199219 121.1875 222.347656 120.011719 223.582031 118.917969 C 225.910156 116.898438 228.65625 115.945312 231.714844 115.859375 C 234.882812 115.777344 237.9375 116.449219 240.996094 117.152344 C 244.332031 117.9375 247.722656 118.722656 251.171875 118.636719 C 254.480469 118.582031 257.734375 117.769531 260.707031 116.335938 C 261.378906 116.03125 262.023438 115.636719 262.695312 115.300781 C 263.199219 115.046875 263.902344 114.683594 264.519531 114.824219 C 265.023438 114.9375 265.304688 115.414062 265.5 115.859375 C 265.835938 116.535156 266.0625 117.261719 266.257812 117.964844 C 267.070312 121.046875 267.042969 124.328125 266.144531 127.386719 C 265.359375 130.019531 263.929688 132.460938 262.023438 134.449219 C 260.058594 136.496094 257.675781 137.730469 255.210938 139.078125 C 252.601562 140.535156 250.304688 142.328125 249.292969 145.21875 C 248.257812 148.160156 248.761719 151.441406 249.796875 154.300781 C 250.386719 155.871094 251.117188 157.386719 251.84375 158.898438 C 252.125 159.460938 252.9375 159.601562 253.472656 159.292969 C 254.03125 158.984375 254.171875 158.28125 253.890625 157.722656 C 252.433594 154.777344 250.949219 151.664062 251.089844 148.300781 C 251.144531 146.871094 251.535156 145.496094 252.351562 144.292969 C 253.136719 143.171875 254.3125 142.328125 255.460938 141.628906 C 256.695312 140.898438 258.015625 140.253906 259.246094 139.554688 C 260.566406 138.796875 261.769531 137.898438 262.890625 136.890625 C 265.164062 134.785156 266.902344 132.179688 267.96875 129.292969 C 269.171875 126.152344 269.453125 122.703125 268.921875 119.394531 C 268.695312 117.796875 268.246094 116.140625 267.546875 114.683594 C 266.761719 113.085938 265.21875 112.214844 263.425781 112.582031 C 261.828125 112.890625 260.425781 113.953125 258.9375 114.597656 C 257.453125 115.273438 255.855469 115.722656 254.257812 116 C 250.808594 116.644531 247.386719 116.199219 243.996094 115.46875 C 237.6875 114.066406 230.507812 111.9375 224.480469 115.414062 C 223.023438 116.253906 221.761719 117.375 220.582031 118.523438 C 219.320312 119.757812 218.058594 120.992188 216.796875 122.226562 C 214.300781 124.691406 211.863281 127.214844 209.789062 130.046875 C 206.117188 135.011719 203.703125 141.433594 205.777344 147.542969 C 206.789062 150.460938 208.75 152.84375 211.386719 154.441406 C 213.070312 155.449219 214.890625 156.125 216.796875 156.628906 C 212.902344 166.414062 204.964844 174.039062 196.695312 180.375 C 193.695312 182.675781 190.582031 184.863281 187.46875 187.023438 C 185.675781 184.328125 183.40625 182.003906 180.742188 180.125 C 173.816406 175.246094 164.589844 174.207031 156.710938 177.347656 C 155.703125 177.769531 154.695312 178.21875 153.742188 178.75 C 152.421875 179.480469 153.601562 181.5 154.945312 180.769531 C 162.234375 176.730469 171.347656 176.957031 178.441406 181.386719 C 181.300781 183.179688 183.714844 185.5625 185.535156 188.367188 C 179.480469 192.574219 173.480469 196.863281 168.179688 201.992188 C 160.160156 209.816406 153.710938 220.359375 153.628906 231.828125 C 153.628906 234.714844 154.078125 237.546875 154.863281 240.292969 C 155.730469 243.210938 156.9375 246.125 157.21875 249.152344 C 157.441406 251.507812 157.160156 254.03125 155.789062 256.050781 C 154.300781 258.238281 151.664062 258.9375 149.199219 259.304688 C 143 260.199219 136.582031 260.199219 130.386719 259.722656 C 124.046875 259.246094 117.769531 258.097656 111.65625 256.359375 C 110.140625 255.910156 108.65625 255.433594 107.167969 254.929688 C 106.582031 254.734375 105.878906 255.183594 105.738281 255.742188 C 105.542969 256.386719 105.9375 256.976562 106.550781 257.199219 Z M 106.550781 257.199219 " fill-opacity="1" fill-rule="evenodd"/></g></svg>